<svg id="Layer_1" data-name="Layer 1" xmlns="http://www.w3.org/2000/svg" viewBox="0 0 112.64 108.68"><defs><style>.cls-1{fill:#a6b5bf;}.cls-2{fill:#ffb71b;}</style></defs><path class="cls-1" d="M28.19,61.69c-.84,1.08-1.31,1.09-1.63,1.09h0a.59.59,0,0,1-.2,0,1,1,0,0,1,.07-.3,4.09,4.09,0,0,1,1.76-.75m-1.74.69h0m4.32-2.84c-2.68,0-5.6.8-6.09,2.22-.76,2.17.86,2.89,1.88,2.89s2.11-.32,3.5-2.33a5.35,5.35,0,0,1,4.29-2.07h.11a8.11,8.11,0,0,0-3.69-.72Z"/><path class="cls-1" d="M85.4,61.66a15.24,15.24,0,0,0-2.65.24l.14,0c3,1,3.18,1.4,5,3.3a1.38,1.38,0,0,0,1,.48A1.42,1.42,0,0,0,90,63.46c-.79-1.47-2.85-1.8-4.57-1.8Z"/><path class="cls-1" d="M92.63,42.23a11.64,11.64,0,0,0-3.27.56h.11a6.84,6.84,0,0,1,4.36,2.14,1.17,1.17,0,0,0,.75.29,1.15,1.15,0,0,0,.78-1.94,3.22,3.22,0,0,0-2.73-1.05Z"/><path class="cls-1" d="M88,23.71a1.84,1.84,0,0,1,1,.37.2.2,0,0,1,0,.08,2.51,2.51,0,0,1,0,.29,8.2,8.2,0,0,1-1.32.16l-.51,0a12.92,12.92,0,0,0-1.39.2A3.42,3.42,0,0,1,88,23.71m.09-1.88c-4.65,0-6.54,6.74-6.54,6.74a11.1,11.1,0,0,1,5.7-2.05c2-.17,3.45-.09,3.58-2.25s-2.74-2.44-2.74-2.44Z"/><path class="cls-1" d="M45.38,29.93h0a1.16,1.16,0,0,1,1,.4,1.43,1.43,0,0,1,.14,1.22c-.14.52-.91,1.08-1.88,1.8a22.38,22.38,0,0,0-3.34,2.83,12.17,12.17,0,0,1,1.35-3.12l0-.06,0-.06c.77-1.52,2.11-3,2.7-3m0-1.87c-2.35,0-4.37,4-4.37,4-4.07,6.79-.47,11.64-.47,11.64-.46-2.66,1.4-5.49,1.4-5.49,2.77-3.36,5.75-4,6.34-6.19a3,3,0,0,0-2.81-4Z"/><path class="cls-1" d="M47.92,70.23l.67.72L50,72.4a20.15,20.15,0,0,0,9.68,5.42,9.93,9.93,0,0,0-2.83,7.26c0,5.21,3.12,11.24,5.25,14.77H47.37c1.71-3.1,3.73-8.59,3.73-17.3a24.46,24.46,0,0,0-3.18-12.32M37.53,62.38s11.7,6,11.7,20.17-5.49,19.17-5.49,19.17H65.52s-6.84-9.4-6.84-16.64,6.84-8.32,6.84-8.32h0c-.65,0-8.94-.11-14.16-5.65-5.44-5.76-7.63-8.73-13.79-8.73Z"/><path class="cls-1" d="M25.75,47.72H26c4.81,0,9.68,4.66,13.15,9.11a30.86,30.86,0,0,0-9.37-1.22H26.93c-2.2,0-3.9-.52-4.78-1.48a3.77,3.77,0,0,1-.82-3c.23-3,2.87-3.44,4.42-3.44h0m0-1.87c-1.08,0-5.91.27-6.29,5.17s3.25,6.49,7.47,6.49l2.81,0c4.38,0,10.43.42,15.19,4.79,0,0-8.77-16.43-19-16.43Z"/><path class="cls-1" d="M24.14,31.06c5.85,0,10.19,7.86,12.68,14.51A28.37,28.37,0,0,0,24.53,41c-1.23-.14-5.23-.94-4.93-5.17A5.25,5.25,0,0,1,24,31.07h.11m0-1.87h-.28s-5.72.82-6.13,6.53c-.34,4.84,3.53,6.81,6.59,7.17,3.91.45,11.73,2.41,16.4,9.12,0,0-5.07-22.83-16.58-22.83Z"/><path class="cls-1" d="M51.46,37.88h.26c2,.13,5.85,1.73,5.85,6.85,0,2.6-1,5-2.13,7.58-1.18,2.76-2.4,5.62-2.4,8.92a27.73,27.73,0,0,0,.55,5.5C47.65,60.58,45,54.12,45,46.07s5.83-8.19,6.49-8.19m0-1.88c-2.85,0-8.36,1.89-8.36,10.07,0,8.54,2.79,16.1,10.87,23.66,0,0,3,2.9,3.56,2.9.15,0,.13-.21-.17-.74l-.42-.81a23.17,23.17,0,0,1-2-9.85c0-5.86,4.52-10.55,4.52-16.5s-4.36-8.51-7.6-8.71l-.38,0Z"/><path class="cls-1" d="M69.07,61.92h.25a26.38,26.38,0,0,1,11.8,3.33,16.87,16.87,0,0,0-5.06,4.25c-3.24,3.9-6,4.1-6.51,4.1h0l-.16,0h-.15l-1,0c-6.07,0-7.4-3.81-7.4-5.28a6.32,6.32,0,0,1,1.45-4c1.38-1.62,3.65-2.44,6.74-2.44m0-1.87C60.73,60.05,59,65.53,59,68.34s2.41,7.15,9.28,7.15l1.06,0h.21c.86,0,4.23-.31,8-4.78s7.2-4.79,8-4.79h.19l-.6-.36s-7-5.37-15.77-5.49Z"/><path class="cls-1" d="M82.56,46.13c.37,0,.75,0,1.11,0,3.45.24,5.92,1.15,7.16,2.62a3.58,3.58,0,0,1,.87,2.44l0,.14v.14c0,4.6-1.8,6.48-6.23,6.48a43.61,43.61,0,0,1-8.66-1.3,36.78,36.78,0,0,0-7-1.09,20.33,20.33,0,0,0-6.85,1.11c4.32-5.19,12-10.58,19.66-10.58m0-1.87C72.25,44.26,62.22,53,58.8,59.39c0,0-1.17,2.59-.71,2.59.11,0,.29-.13.59-.44,0,0,3.19-4.07,11.07-4.07h0c3.82,0,10.41,2.39,15.68,2.39,4.54,0,8.1-1.77,8.1-8.35,0,0,1-6.46-9.75-7.21-.41,0-.83,0-1.24,0Z"/><path class="cls-1" d="M89.21,30.14a4.19,4.19,0,0,1,4.09,3.47,4.6,4.6,0,0,1-.86,3.79c-1.25,1.52-3.78,2.42-7.32,2.57a43.21,43.21,0,0,0-11.93,2c3.41-4.77,9.46-11.67,16-11.86m0-1.87C78,28.52,68.87,45.21,68.71,45.48c-.43.83-.63,1.18-.5,1.18a19.36,19.36,0,0,0,1.89-1.22c2.18-1.4,7.27-3.25,15.11-3.6s10.63-4,9.94-8.52c-.76-5-5.93-5.05-5.93-5.05Z"/><path class="cls-2" d="M63.45,20.59c1.51,0,6.46.71,6.46,9.84v.07c0,.08.16,7.5-6.43,15.77a19.43,19.43,0,0,0,0-4.37v-.12c-.08-.44-.69-2.9-4.58-8.74-1.91-2.87-3.32-7.18-1.89-9.85.91-1.72,3-2.59,6.23-2.59h.27m0-1.87h-.27c-11,0-9.77,9.53-5.89,15.35s4.29,8.05,4.29,8.05a19.37,19.37,0,0,1-2.11,11l4.22-4.26c8.46-9.55,8.09-18.49,8.09-18.49,0-11.13-6.89-11.71-8.33-11.71Z"/><path class="cls-2" d="M77.34,13.66a4.53,4.53,0,0,1,3.28,1.07,3.63,3.63,0,0,1,.94,2.32h0v.05c0,4.8-3.13,9.4-5.23,12a13.3,13.3,0,0,0-1.28-6.57A12.56,12.56,0,0,1,73.58,18a4,4,0,0,1,3.76-4.33m-.06-1.87A5.9,5.9,0,0,0,71.71,18a13.74,13.74,0,0,0,1.69,5.31c1.6,3,1.12,7.6.33,9.61,0,.06-.2.92.25.92.28,0,.81-.34,1.77-1.42,0,0,7.68-7.26,7.68-15.36,0,0,.17-5.31-6.15-5.31Z"/><path class="cls-2" d="M66.45,14.5c1.35,0,2,.33,2.22.64a.58.58,0,0,1,.07.33l-.29,0a12.15,12.15,0,0,1-1.78-.22c-.72-.12-1.57-.26-2.53-.33a6.59,6.59,0,0,1,2.31-.44m0-1.87c-5,0-8.74,4.87-8.74,4.87a16.57,16.57,0,0,1,4.9-.75c2.56,0,4.42.61,5.84.61A2.82,2.82,0,0,0,69.93,17c1-.61,1.57-4.38-3.48-4.38Z"/><path class="cls-2" d="M66.3,7.21a2.56,2.56,0,0,1,2,1.45l-.42,0A6.79,6.79,0,0,1,65,8.2c0-.42.09-.55.12-.59a1.85,1.85,0,0,1,1.07-.4h.09m0-1.87h-.19s-3.16.1-3,3c.13,1.8,2.27,2.05,4.62,2.15a4.4,4.4,0,0,1,3.86,2.13S70.51,5.34,66.3,5.34Z"/><path class="cls-2" d="M28.16,20.33c1.38,0,3,1.37,4.55,3.85a17.94,17.94,0,0,1,1.71,3.61A24.21,24.21,0,0,0,28.1,23.7a2.81,2.81,0,0,1-1.69-1.9.93.93,0,0,1,.14-.78,2.38,2.38,0,0,1,1.61-.69m0-1.87a4.24,4.24,0,0,0-2.92,1.22C23.88,21,24.38,24,27.3,25.39A18.82,18.82,0,0,1,37.59,35.73,24.92,24.92,0,0,0,34.3,23.19c-2.3-3.66-4.45-4.73-6.14-4.73Z"/><path class="cls-2" d="M37.69,12.13a3,3,0,0,1,2.38.86,5.51,5.51,0,0,1,1,3.74v.21a25.35,25.35,0,0,1-1,7.19,21.09,21.09,0,0,0-4.12-6.39c-1.36-1.49-2-3.21-1.49-4.27s2.26-1.34,3.26-1.34m0-1.88c-5.94,0-6.7,4.86-3.16,8.75s4.73,7.55,4.81,10.92c0,0,3.54-4.11,3.54-13,0,0,.75-6.69-5.19-6.69Z"/><path class="cls-2" d="M51.75,7.32a4.78,4.78,0,0,1,3.58,1.14,3.29,3.29,0,0,1,.81,2.21h0v.15c0,2.63-1,3.9-2.32,5.51a13,13,0,0,0-3.46,8.12,14.13,14.13,0,0,0,.15,2.91c-2.36-3-3.53-7-3.49-12v-.33a14.14,14.14,0,0,1,.7-4.89,3.89,3.89,0,0,1,4-2.84m0-1.87c-6.69,0-6.61,7.73-6.61,9.67s-.41,12.22,8.69,17.54h0c.21,0-1.83-4.35-1.61-8.11C52.65,17.48,58,17.39,58,10.82c0,0,.43-5.37-6.26-5.37Z"/></svg>