<svg width="115" height="35" viewBox="0 0 115 35" fill="none" xmlns="http://www.w3.org/2000/svg">
<g clip-path="url(#clip0_1309_32443)">
<g clip-path="url(#clip1_1309_32443)">
<path d="M22.4738 15.0146H25.5025C25.6175 15.0146 25.6941 15.0146 25.7708 15.0913C25.7708 15.0913 25.7708 15.0913 25.7708 15.1296V30.1194C25.7708 30.7712 26.3842 31.2312 27.0359 31.0395C28.4544 30.4645 30.2946 29.7361 31.6364 29.1227C31.8664 29.0077 32.1731 28.8927 32.1731 28.4326V15.1296C32.1731 15.1296 32.1731 15.0913 32.1731 15.0529C32.1731 15.0146 32.1731 15.0146 32.1731 15.0146V5.89032C32.1731 5.35359 31.7514 4.93188 31.2147 4.93188H28.9528C28.5311 4.93188 28.1861 5.20024 28.0327 5.58362C27.1126 8.15221 25.3491 10.0691 22.7038 10.5291C20.0586 10.9892 22.4738 10.5675 22.3205 10.5675C21.8221 10.6441 21.477 11.0275 21.477 11.5259V14.0178C21.477 14.5545 21.8988 14.9762 22.4355 14.9762L22.4738 15.0146Z" fill="#D93A26"/>
<path d="M26.4608 3.89677C26.3458 3.78176 26.1541 3.66675 25.9624 3.66675H3.76513C3.07506 3.66675 2.5 4.16513 2.5 4.81687V8.19054C2.5 8.99563 2.65335 9.379 3.65012 9.379H11.0492C11.2409 9.379 11.3942 9.53235 11.3942 9.72403V12.561V28.3559C11.3942 28.701 11.6243 28.9693 11.9693 29.1227C12.621 29.391 14.8829 30.5028 15.6497 30.9245C16.4164 31.3462 17.7582 30.6178 17.7582 29.5444V10.2608C17.7582 10.2224 17.7582 10.1074 17.7582 10.1074C17.7199 9.83904 17.7582 9.57068 18.0266 9.45567C18.1033 9.45567 18.1416 9.45567 18.2183 9.45567H20.6335C25.9241 8.95729 26.4608 4.8552 26.4991 4.39516C26.4991 4.39516 26.4991 4.35682 26.4991 4.31848V4.20347C26.4991 4.08846 26.4991 4.01178 26.3841 3.93511L26.4608 3.89677Z" fill="#D93A26"/>
</g>
<path d="M41.1303 28.5041C39.9228 28.5041 38.8615 28.2416 37.9465 27.7166C37.039 27.1841 36.3303 26.4454 35.8203 25.5004C35.3178 24.5479 35.0665 23.4454 35.0665 22.1929C35.0665 20.8654 35.314 19.7141 35.809 18.7391C36.3115 17.7641 37.009 17.0104 37.9015 16.4779C38.794 15.9454 39.8328 15.6791 41.0178 15.6791C42.2553 15.6791 43.309 15.9679 44.179 16.5454C45.049 17.1154 45.6978 17.9291 46.1253 18.9866C46.5603 20.0441 46.7328 21.3004 46.6428 22.7554H44.2915V21.9004C44.2765 20.4904 44.0065 19.4479 43.4815 18.7729C42.964 18.0979 42.1728 17.7604 41.1078 17.7604C39.9303 17.7604 39.0453 18.1316 38.4528 18.8741C37.8603 19.6166 37.564 20.6891 37.564 22.0916C37.564 23.4266 37.8603 24.4616 38.4528 25.1966C39.0453 25.9241 39.9003 26.2879 41.0178 26.2879C41.7528 26.2879 42.3865 26.1229 42.919 25.7929C43.459 25.4554 43.879 24.9754 44.179 24.3529L46.4853 25.0841C46.0128 26.1716 45.2965 27.0154 44.3365 27.6154C43.3765 28.2079 42.3078 28.5041 41.1303 28.5041ZM36.799 22.7554V20.9216H45.4728V22.7554H36.799ZM57.3647 28.1666V22.1929C57.3647 21.7204 57.3235 21.2366 57.241 20.7416C57.166 20.2391 57.016 19.7741 56.791 19.3466C56.5735 18.9191 56.2622 18.5741 55.8572 18.3116C55.4597 18.0491 54.9385 17.9179 54.2935 17.9179C53.8735 17.9179 53.476 17.9891 53.101 18.1316C52.726 18.2666 52.396 18.4879 52.111 18.7954C51.8335 19.1029 51.6122 19.5079 51.4472 20.0104C51.2897 20.5129 51.211 21.1241 51.211 21.8441L49.7485 21.2929C49.7485 20.1904 49.9547 19.2191 50.3672 18.3791C50.7797 17.5316 51.3722 16.8716 52.1447 16.3991C52.9172 15.9266 53.851 15.6904 54.946 15.6904C55.786 15.6904 56.491 15.8254 57.061 16.0954C57.631 16.3654 58.0922 16.7216 58.4447 17.1641C58.8047 17.5991 59.0785 18.0754 59.266 18.5929C59.4535 19.1104 59.581 19.6166 59.6485 20.1116C59.716 20.6066 59.7497 21.0416 59.7497 21.4166V28.1666H57.3647ZM48.826 28.1666V16.0166H50.9297V19.5266H51.211V28.1666H48.826ZM65.965 28.1666L61.555 16.0166H63.9287L67.1575 25.2191L70.3862 16.0166H72.76L68.35 28.1666H65.965ZM77.1494 14.2166H75.3044L76.9132 10.2791H78.7582L77.1494 14.2166ZM75.0119 28.1666V16.0166H77.3632V28.1666H75.0119ZM86.0178 28.5041C84.8028 28.5041 83.749 28.2304 82.8565 27.6829C81.964 27.1354 81.274 26.3816 80.7865 25.4216C80.3065 24.4541 80.0665 23.3404 80.0665 22.0804C80.0665 20.8129 80.314 19.6991 80.809 18.7391C81.304 17.7716 81.9978 17.0216 82.8903 16.4891C83.7828 15.9491 84.8253 15.6791 86.0178 15.6791C87.2328 15.6791 88.2865 15.9529 89.179 16.5004C90.0715 17.0479 90.7615 17.8016 91.249 18.7616C91.7365 19.7216 91.9803 20.8279 91.9803 22.0804C91.9803 23.3479 91.7328 24.4654 91.2378 25.4329C90.7503 26.3929 90.0603 27.1466 89.1678 27.6941C88.2753 28.2341 87.2253 28.5041 86.0178 28.5041ZM86.0178 26.2879C87.1803 26.2879 88.0465 25.8979 88.6165 25.1179C89.194 24.3304 89.4828 23.3179 89.4828 22.0804C89.4828 20.8129 89.1903 19.8004 88.6053 19.0429C88.0278 18.2779 87.1653 17.8954 86.0178 17.8954C85.2303 17.8954 84.5815 18.0754 84.0715 18.4354C83.5615 18.7879 83.1828 19.2791 82.9353 19.9091C82.6878 20.5316 82.564 21.2554 82.564 22.0804C82.564 23.3554 82.8565 24.3754 83.4415 25.1404C84.0265 25.9054 84.8853 26.2879 86.0178 26.2879ZM98.879 28.4929C97.4015 28.4929 96.1977 28.1666 95.2677 27.5141C94.3377 26.8616 93.7677 25.9429 93.5577 24.7579L95.9652 24.3866C96.1152 25.0166 96.4602 25.5154 97.0002 25.8829C97.5477 26.2429 98.2265 26.4229 99.0365 26.4229C99.7715 26.4229 100.345 26.2729 100.758 25.9729C101.178 25.6729 101.388 25.2604 101.388 24.7354C101.388 24.4279 101.313 24.1804 101.163 23.9929C101.02 23.7979 100.716 23.6141 100.251 23.4416C99.7865 23.2691 99.0777 23.0554 98.1252 22.8004C97.0827 22.5304 96.254 22.2416 95.639 21.9341C95.0315 21.6191 94.5965 21.2554 94.334 20.8429C94.079 20.4229 93.9515 19.9166 93.9515 19.3241C93.9515 18.5891 94.1465 17.9479 94.5365 17.4004C94.9265 16.8529 95.474 16.4291 96.179 16.1291C96.8915 15.8291 97.724 15.6791 98.6765 15.6791C99.6065 15.6791 100.435 15.8254 101.163 16.1179C101.89 16.4104 102.479 16.8266 102.929 17.3666C103.379 17.8991 103.649 18.5254 103.739 19.2454L101.331 19.6841C101.249 19.0991 100.975 18.6379 100.51 18.3004C100.045 17.9629 99.4415 17.7791 98.699 17.7491C97.9865 17.7191 97.409 17.8391 96.9665 18.1091C96.524 18.3716 96.3027 18.7354 96.3027 19.2004C96.3027 19.4704 96.3852 19.6991 96.5502 19.8866C96.7227 20.0741 97.0527 20.2541 97.5402 20.4266C98.0277 20.5991 98.7477 20.8054 99.7002 21.0454C100.72 21.3079 101.53 21.6004 102.13 21.9229C102.73 22.2379 103.158 22.6166 103.413 23.0591C103.675 23.4941 103.806 24.0229 103.806 24.6454C103.806 25.8454 103.368 26.7866 102.49 27.4691C101.62 28.1516 100.416 28.4929 98.879 28.4929Z" fill="black"/>
</g>
<defs>
<clipPath id="clip0_1309_32443">
<rect width="114.167" height="35" fill="white"/>
</clipPath>
<clipPath id="clip1_1309_32443">
<rect width="35.8333" height="35" fill="white" transform="translate(0 -0.5)"/>
</clipPath>
</defs>
</svg>
