<svg width="132" height="33" viewBox="0 0 132 33" fill="none" xmlns="http://www.w3.org/2000/svg">
<path d="M46.7412 13.0555V1L29.6943 13.0555H46.7412Z" fill="#FFDC00"/>
<path d="M46.7412 13.0555V1L29.6943 13.0555H46.7412Z" stroke="black" stroke-width="0.493513"/>
<path d="M57.7391 1H48.1582V13.0555H57.7391V1Z" fill="#FFDC00"/>
<path d="M57.7391 1H48.1582V13.0555H57.7391V1Z" stroke="black" stroke-width="0.493513"/>
<path d="M68.7162 1H59.1353V13.0555H68.7162V1Z" fill="#E60F04"/>
<path d="M68.7162 1H59.1353V13.0555H68.7162V1Z" stroke="black" stroke-width="0.493513"/>
<path d="M79.7142 1H70.1333V13.0555H79.7142V1Z" fill="#E60F04"/>
<path d="M79.7142 1H70.1333V13.0555H79.7142V1Z" stroke="black" stroke-width="0.493513"/>
<path d="M98.1566 1H81.1309V13.0555L98.1566 1Z" fill="#E60F04"/>
<path d="M98.1566 1H81.1309V13.0555L98.1566 1Z" stroke="black" stroke-width="0.493513"/>
<path d="M5.73164 27.8816L8.22733 22.0865L10.9134 27.8816H5.73164ZM15.1645 30.4619L11.0614 21.3039C10.9345 21.029 10.8711 20.8386 10.8711 20.7329C10.8711 20.6271 10.9557 20.4791 11.0403 20.2887H5.90084C6.00659 20.5214 6.04889 20.6483 6.04889 20.7117C6.04889 20.8386 5.98544 21.0501 5.85854 21.3039L1.45935 30.4619C1.03635 31.329 0.634499 32.0693 0 32.7038H4.77989C4.46264 32.4288 4.29344 32.0693 4.29344 31.5617C4.29344 31.2444 4.35689 30.9272 4.44149 30.7368L4.71644 30.1235H11.8651L12.2247 30.9483C12.2881 31.0964 12.3727 31.3925 12.3727 31.7097C12.3727 32.0904 12.2247 32.3865 11.9074 32.7038H16.6239C16.0317 32.1116 15.5664 31.3502 15.1645 30.4619Z" fill="#E60F04"/>
<path d="M23.0744 32.9787C18.929 32.9787 16.9198 31.3502 16.9198 28.0508V22.4672C16.9198 21.3251 16.5814 20.606 15.8623 20.3099H21.0229C20.2403 20.6483 19.9865 21.3039 19.9865 22.4672V27.945C19.9865 29.7428 21.044 30.7157 23.0956 30.7157C25.126 30.7157 26.1835 29.7639 26.1835 27.945V22.4672C26.1835 21.3885 26.0143 20.7117 25.126 20.3099H30.3077C29.6098 20.606 29.2291 21.3462 29.2291 22.4672V28.0508C29.2079 31.3713 27.2198 32.9787 23.0744 32.9787Z" fill="#E60F04"/>
<path d="M35.1302 31.2233V30.5253V22.4037H34.538C32.8248 22.4037 31.3866 22.6152 29.9907 23.4612C30.4137 21.8961 30.7521 21.0501 30.7521 20.7752C30.7521 20.6271 30.6675 20.458 30.5406 20.2676H42.8076C42.6595 20.458 42.5961 20.6271 42.5961 20.7752C42.5961 21.029 42.9345 21.875 43.3575 23.4612C41.9616 22.6152 40.5234 22.4037 38.8102 22.4037H38.1546V30.5253C38.1546 31.5405 38.5987 32.45 39.2755 32.6826H34.115C34.7495 32.45 35.1302 31.7943 35.1302 31.2233Z" fill="#E60F04"/>
<path d="M50.1044 30.7157C47.651 30.7157 46.2128 29.2563 46.2128 26.7183C46.2128 23.8842 47.7356 22.2768 50.4428 22.2768C52.8962 22.2768 54.3344 23.7362 54.3344 26.3165C54.3344 29.1083 52.7905 30.7157 50.1044 30.7157ZM57.5704 26.5068C57.5704 22.4249 54.9266 20.0138 50.2736 20.0138C45.7475 20.0138 42.998 22.721 42.998 26.6549C42.998 30.5253 45.6206 32.9999 50.2736 32.9999C54.7997 33.021 57.5704 30.2715 57.5704 26.5068Z" fill="#E60F04"/>
<path d="M71.402 32.1116C70.4714 32.1116 68.6948 32.9787 65.9242 32.9787C61.1866 32.9787 58.6274 30.6099 58.6274 26.6337C58.6274 22.6787 61.4404 19.9926 66.6644 19.9926C68.5045 19.9926 69.8369 20.331 70.6406 20.331C70.8944 20.331 71.2963 20.2887 71.8673 20.2041L71.0002 23.3766C69.5831 22.5729 68.0815 22.1499 66.5798 22.1499C63.5554 22.1499 61.8422 23.7996 61.8422 26.7395C61.8422 29.4255 63.2381 30.8426 65.903 30.8426C68.2295 30.8426 69.4562 30.0389 69.4562 28.6007V27.4797H66.6221C66.0088 27.4797 65.5646 27.5855 65.0147 27.9662L65.4589 26.3588C65.7127 25.4916 65.9453 25.3436 66.9817 25.3436H72.7768C72.4172 25.7031 72.4172 26.0204 72.4172 26.5068V32.2808C71.9096 32.175 71.5712 32.1116 71.402 32.1116Z" fill="#E60F04"/>
<path d="M73.4751 20.2887H78.678C77.9377 20.606 77.5782 21.3251 77.5782 22.4037V30.5888H81.0679C83.056 30.5888 84.6 30.1869 85.9324 29.1083C85.2345 30.8849 84.748 31.8578 84.748 32.175C84.748 32.3442 84.8538 32.5134 85.0018 32.7249H73.4751C74.2153 32.3865 74.5114 31.7097 74.5114 30.5888V22.4249C74.5114 21.2828 74.1942 20.6271 73.4751 20.2887Z" fill="#E60F04"/>
<path d="M91.3039 27.8816L93.7996 22.0865L96.4856 27.8816H91.3039ZM100.737 30.4619L96.6548 21.3039C96.5279 21.029 96.4645 20.8386 96.4645 20.7329C96.4645 20.6271 96.5491 20.4791 96.6337 20.2887H91.4731C91.5789 20.5214 91.6212 20.6483 91.6212 20.7117C91.6212 20.8386 91.5577 21.0501 91.4308 21.3039L87.0316 30.4619C86.6086 31.329 86.2068 32.0693 85.5723 32.7038H90.3522C90.0349 32.4288 89.8657 32.0693 89.8657 31.5617C89.8657 31.2444 89.9292 30.9272 90.0138 30.7368L90.2887 30.1235H97.4374L97.7969 30.9483C97.8604 31.0964 97.945 31.3925 97.945 31.7097C97.945 32.0904 97.7969 32.3865 97.4797 32.7038H102.196C101.604 32.1116 101.117 31.3502 100.737 30.4619Z" fill="#E60F04"/>
<path d="M108.16 30.7157C110.254 30.7157 111.291 30.1658 111.291 29.0871C111.291 27.7758 109.831 27.6912 107.378 27.3528C104.332 26.9298 102.831 25.83 102.831 23.9054C102.831 21.6846 104.925 20.0138 108.457 20.0138C110.72 20.0138 112.412 20.4156 113.385 20.4156C113.554 20.4156 113.723 20.3945 113.913 20.3099L113.152 23.4612C111.946 22.6998 110.318 22.2557 108.372 22.2557C106.849 22.2557 106.067 22.6998 106.067 23.5035C106.067 24.7091 107.505 24.5822 110.127 25.0686C113.088 25.6185 114.569 26.6337 114.569 28.7699C114.569 31.4348 112.348 32.9787 108.203 32.9787C106.32 32.9787 104.925 32.6826 104.163 32.6826C103.952 32.6826 103.74 32.7249 103.529 32.8095L102.746 29.3198C104.628 30.2715 106.405 30.7157 108.16 30.7157Z" fill="#E60F04"/>
<path d="M120.914 30.7157C123.008 30.7157 124.045 30.1658 124.045 29.0871C124.045 27.7758 122.585 27.6912 120.132 27.3528C117.086 26.9298 115.585 25.83 115.585 23.9054C115.585 21.6846 117.678 20.0138 121.21 20.0138C123.474 20.0138 125.166 20.4156 126.138 20.4156C126.308 20.4156 126.477 20.3945 126.667 20.3099L125.906 23.4612C124.7 22.6998 123.072 22.2557 121.126 22.2557C119.603 22.2557 118.821 22.6998 118.821 23.5035C118.821 24.7091 120.259 24.5822 122.881 25.0686C125.842 25.6185 127.323 26.6337 127.323 28.7699C127.323 31.4348 125.102 32.9787 120.957 32.9787C119.074 32.9787 117.678 32.6826 116.917 32.6826C116.706 32.6826 116.494 32.7249 116.283 32.8095L115.5 29.3198C117.361 30.2715 119.138 30.7157 120.914 30.7157Z" fill="#E60F04"/>
<path d="M129.903 17.6873C130.368 17.6873 130.77 17.8565 131.088 18.1949C131.405 18.5122 131.553 18.914 131.553 19.4005C131.553 19.8235 131.384 20.2464 131.066 20.5425C130.749 20.8598 130.326 21.029 129.882 21.029C129.438 21.029 129.015 20.8386 128.698 20.5214C128.38 20.2041 128.211 19.8023 128.211 19.3582C128.211 18.914 128.401 18.491 128.719 18.1738C129.057 17.8354 129.459 17.6873 129.903 17.6873ZM129.903 17.3701C129.184 17.3701 128.571 17.7296 128.211 18.3218C128.021 18.6602 127.915 18.9986 127.915 19.3582C127.915 19.8657 128.105 20.3733 128.486 20.754C128.867 21.1347 129.374 21.3462 129.903 21.3462C130.411 21.3462 130.918 21.1347 131.32 20.7752C131.701 20.4157 131.912 19.908 131.912 19.3582C131.912 18.8294 131.722 18.3218 131.362 17.9623C130.961 17.5604 130.453 17.3701 129.903 17.3701ZM129.078 18.2161V20.4368H129.607V19.5274H129.882L130.305 20.4368H130.897L130.411 19.4427C130.707 19.3581 130.897 19.1467 130.897 18.8506C130.897 18.4276 130.58 18.2161 129.945 18.2161H129.078ZM129.607 18.5545H129.84C130.157 18.5545 130.326 18.6602 130.326 18.8929C130.326 19.1044 130.178 19.2101 129.861 19.2101H129.586V18.5545H129.607Z" fill="#E60F04"/>
</svg>
