<?xml version="1.0" encoding="UTF-8"?>
<svg  id="Layer_1" data-name="Layer 1" xmlns="http://www.w3.org/2000/svg" viewBox="0 0 237.35 91.63" >
  <path d="M158.24,15.62c-4.42,0-7.21-3.75-7.21-8.1,0-1.28.26-2.45.81-3.61.17-.36.34-.48.75-.52,1.39-.15,2.83-.21,4.17-.18.28,0,.35.17.35.31,0,.51-1.41,1.63-1.41,3.34,0,1.35.99,2.77,2.41,2.77,1.25,0,2.14-1.39,2.14-2.82,0-1.91-1.31-2.67-1.31-3.24,0-.23.12-.37.38-.37,1.36,0,2.84.05,4.25.17.46.04.69.19.92.67.44.88.63,1.94.63,3.26,0,4.2-2.69,8.32-6.89,8.32ZM152.9,27.51c-.32.23-.57.18-.59-.16l-.59-10.78c-.02-.36.21-.58.55-.59l3.43-.04c.34,0,.41.3.14.62-.34.42-.58.77-.54,2.02l.09,2.7h2.07v-3.39c0-.36.21-.57.55-.57h2.42c.3,0,.47.16.46.46l-.09,3.5h1.17c1.18,0,1.43-.11,1.84-.41.32-.23.61-.18.59.16l-.34,5.49c-.02.36-.21.57-.55.57h-8.63c-1.27,0-1.59.11-2,.41ZM158.11,42.61c-2.56,0-4.64-.22-4.64-.22-.22-.01-.34-.13-.35-.34l-.27-4.94c-.02-.34.27-.41.59-.18.41.3.73.38,2,.41.55.01,1.03.02,1.58.03l-2.12-1.95c-.83-.77-1.18-.84-1.59-.54-.32.23-.57.18-.59-.16l-.33-6.02c-.02-.42.41-.56.63-.23.2.29.53.8,1.03,1.24l3.08,2.72,4.78-3.04c.76-.48,1.18-.89,1.46-1.37.16-.26.63-.27.6.22l-.24,3.95c-.09,1.53-.48,2.25-1.98,3.12l-3.57,2.08c.9,0,1.77-.01,2.66-.03,1.27-.03,1.59-.11,2-.41.32-.23.61-.18.59.16l-.31,4.95c-.01.22-.13.34-.35.35,0,0-2.11.22-4.67.22ZM139.19,18.94l-.58-3.49c-.24-1.42-.1-1.62.43-2.8l.92-2.04-.32.06c-.54.1-1.16.22-1.35.56-.13.23-.4.29-.47-.1l-.82-4.7c-.07-.38.44-.64.75-.78.85-.39,4.1-1.06,5.02-1.24.23-.04.37.06.4.3l.69,5.46c.03.22.04.36-.12.39-.3.07-.4-.42-2.22-.16l-.99.14,1.85,1.68c.42.39.77.39,1.23-.18.21-.26.38-.2.42.11l.72,5.89c.03.24-.1.4-.25.37-.19-.04-.25-.21-.59-.52l-2.62-2.42c-.81,1.34-1.41,2.32-1.61,3.41-.07.41-.42.46-.48.04ZM145.89,30.11c-.61,0-1.22-.03-1.69-.1-.37-.05-.4-.26-.34-.44.21-.57.21-.88.12-1.59l-.34-2.77-.84-.03.4,3.08c.02.15.02.22-.04.27-.15.16-1.07.09-1.2,0-.08-.06-.09-.15-.1-.24l-.46-3.15c-.4-.04-.51.03-.62.47-.07.28-.41.25-.45.02l-.91-5.42c-.06-.37.14-.47.33-.48l4.02-.2c.44-.02.53-.09.7-.37.12-.21.43-.2.46.07l1.27,10.46c.03.24-.1.4-.3.41ZM169.32,41.74c-.35.02-.54-.04-.6-.4-.22-1.26,0-2.96.4-4.82.67-3.1,2.37-6.29,4.05-6.29,1.5,0,1.44,3.18,1,6.08-.28,1.87-.55,3.36-.85,4.13-.1.26-.28.39-.48.51s-.68.33-1.02.36c-.28.03-.3-.16-.27-.33.08-.44.72-1.76.97-3.16.24-1.39.06-2.15-.4-2.13-.44.02-.93.97-1.13,2.09-.35,2.03.14,3,.06,3.44-.03.19-.11.26-.36.32-.35.08-.94.17-1.37.2ZM173.76,29.74c-.07-.05-.04-.14,0-.24.21-.46.25-.5.47-1.82l.41-2.49h-.71s-.48,3.16-.48,3.16c-.02.11-.05.17-.13.22-.17.11-1.03.12-1.17,0-.07-.07-.08-.14-.07-.29l.4-3.04h-.47c-.66.03-.78.19-.93.37-.18.2-.5.16-.46-.17l.61-5.45c.04-.35.1-.47.27-.46l4.09.21c.59.03.73.04.93-.13.24-.21.48-.12.42.22l-1.65,9.43c-.04.23-.05.32-.16.41-.16.13-1.23.19-1.36.1ZM173.1,4.7c.03-.23.17-.34.4-.3.92.17,4.17.85,5.02,1.24.31.14.81.41.75.78l-.79,4.69c-.03.19-.06.33-.21.3-.27-.04-.17-.41-1.19-.64l-.43-.1.34,1.71c.13.66.29.85.73.57.18-.11.47-.21.4.16l-.97,5.39c-.07.37-.42.41-.46.02-.07-.65-.17-1.04-.46-1.89-.17-.49-.39-1-.63-1.52-1.06.8-2.02,1.6-2.93,2.39-.44.39-.57.59-.8.91-.21.29-.5.28-.44-.16l.39-3.17c.14-1.09.56-1.67,1.42-2.32l2.91-2.2-1.43-.16c-1.25-.14-1.63-.13-1.94.09-.26.18-.41.03-.38-.25l.7-5.57ZM145.57,41.55c-.25-.06-.33-.14-.36-.32-.08-.44.42-1.41.06-3.44-.19-1.12-.69-2.07-1.13-2.09-.46-.02-.64.74-.4,2.13.24,1.4.89,2.72.97,3.16.03.17,0,.36-.27.33-.33-.04-.83-.25-1.02-.36s-.38-.25-.48-.51c-.3-.77-.57-2.26-.85-4.13-.44-2.9-.51-6.08,1-6.08,1.68,0,3.38,3.19,4.05,6.29.4,1.85.62,3.56.4,4.82-.06.36-.25.42-.6.4-.43-.03-1.01-.11-1.37-.2Z" style="fill: #f5002b;"/>
  <g>
    <path d="M207.67,14.84c-.27,0-.56.05-.84.16-.55.21-.98.61-1.19,1.09-.16.37-.17.77-.02,1.11.34.83,1.45,1.19,2.46.8.55-.21.98-.61,1.19-1.09.16-.37.17-.77.02-1.11-.25-.6-.9-.95-1.63-.95Z" style="fill: red;"/>
    <path d="M192.4,31.97c.07.31.18.82.73,1.1.56.28,1.31.21,2.23-.21.21-.1.42-.16.61-.23.14-.06.23-.13.26-.25l.2-.62c.25-.79.5-1.58.75-2.38.1-.3.19-.38.47-.38h4.07c.06,0,.11.04.14.08.03.05.04.11.03.16l-.2.64c-.28.89-.56,1.76-.83,2.63-.11.34-.21.71-.22,1.08-.01.35.24.71.65.93.37.2.75.22,1,.04.12-.08.17-.25.22-.4l.23-.73c.42-1.33.85-2.7,1.26-4.06.09-.31.18-.37.47-.38,1.07.02,2.12.02,3.23.01h.86s0,0,0,0c.06,0,.11.03.14.07.03.04.04.1.03.15l-3.86,12.33c-.12.39-.37.38-.41.37h-4.1c-.07,0-.14-.03-.19-.09-.04-.06-.06-.14-.03-.21l.15-.46c.34-1.05.66-2.06.98-3.07.04-.11.07-.24.1-.38.09-.5.04-.84-.15-1.09-.18-.24-.48-.37-.94-.42-.04,0-.08,0-.12,0-.33,0-.52.17-.64.55-.44,1.44-.94,3-1.57,4.91-.03.1-.15.25-.33.25-.67,0-1.31,0-1.95,0-.65,0-1.3,0-2,0-.12,0-.25,0-.32-.1-.04-.06-.06-.14-.03-.21l1.85-5.89c.04-.12.14-.37.07-.47-.06-.09-.32-.02-.44,0-.28.02-.68.01-.92-.05-1.42-.34-1.97-1.57-1.65-3.23,0,0,0-.08.08-.09.06,0,.08.01.09.05Z" style="fill: red;"/>
    <path d="M234.47,18.9l-.15.06c-.6.23-1.16.45-1.73.65-.17.06-.43.05-.57-.07-.68-.58-1.46-.86-2.38-.86-.14,0-.29,0-.44.02-1.38.13-2.75.96-3.77,2.28-1.16,1.52-1.69,3.43-1.4,5.12.13.78.5,1.37,1.03,1.66.49.26,1.07.27,1.69,0,.23-.1.46-.23.69-.4.57-.42.89-.7,1.29-1.14.06-.06.16-.17.23-.13.07.04.07.16.05.29l-.3,1.02c-.02.07-.02.14,0,.16s.06.05.14.05h.29c.8,0,1.55,0,2.41.01h0c.19,0,.35-.12.41-.3.51-1.63,1.03-3.26,1.56-4.89l.4-1.23c.18-.56.36-1.12.55-1.71l.15-.46c.02-.06-.01-.1-.03-.12-.01-.01-.06-.05-.12-.02ZM230.22,20.5v.04c-.14,1.61-.61,3.1-1.39,4.45-.05.08-.11.16-.17.23-.14.16-.28.24-.42.24-.04,0-.07,0-.11-.02-.13-.04-.23-.21-.3-.48-.04-.17-.05-.36-.04-.6.14-1.54.57-2.96,1.29-4.23.13-.22.49-.62.76-.58.45.05.4.61.37.95Z" style="fill: red;"/>
    <path d="M210.18,29.91l-2.05,6.28c-.37,1.11-.56,1.66-.79,2.87-.12.6,0,1.18.34,1.68.41.59,1.13,1.03,1.93,1.16.72.12,1.46.11,2.13-.03,1.53-.32,2.63-1.42,3.27-3.26l1.8-5.16s0-.03,0-.04c-1.15.09-2.26-.22-2.31-.24h0c-.16,0-.23.04-.29.3-.39,1.69-.78,3.25-1.2,4.91l-.09.38c-.12.46-.28.81-.48,1.04-.35.4-.75.28-.9.23-.27-.08-.48-.43-.5-.71-.04-.41.08-.86.17-1.17.26-.88.55-1.77.88-2.74,0-.02.61-1.76.98-2.68.05-.13,0-.29-.12-.36-1-.65-1.3-.94-1.66-1.34-.32-.36-.67-.8-.9-1.1,0,0-.05-.07-.1-.07s-.08.04-.09.07Z" style="fill: red;"/>
    <path d="M224.64,33.29h-1.41c-.07,0-.14-.03-.18-.09s-.06-.13-.03-.2c.13-.41.16-.53.19-.65.03-.11.06-.22.16-.55,0-.02,0-.03,0-.04,0,0-.01-.02-.03-.02-.87-.12-1.37-.31-2.04-.77,0,0-.01,0-.02,0-.02,0-.04,0-.04.02-.07.15-.12.23-.21.35-.04.06-.1.14-.16.25-.42.65-.85.98-1.45,1.33-.44.26-1.07.37-1.4.42-.07,0-.13.06-.15.13l-.55,1.65s0,.03,0,.04.02.02.04.02h.69c.08,0,.16.04.21.1.05.07.07.15.04.23-.04.16-.08.27-.11.39-.09.32-.18.64-.27.95-.21.7-.42,1.43-.55,2.15-.24,1.34.3,2.48,1.33,2.84,1.05.36,2.04.23,2.94-.39.46-.32.82-.77,1.1-1.4,0-.02,0-.04-.02-.06,0,0-.04-.01-.06,0-.48.11-.81.04-1.04-.2-.48-.52-.17-1.61-.15-1.66.17-.73.4-1.45.64-2.15l.17-.52c.04-.14.18-.28.36-.29.22-.01.46-.01.7,0,.22,0,.44,0,.64,0,.14,0,.18-.01.21-.08.21-.61.34-.98.55-1.66,0-.03,0-.06-.01-.09-.01-.01-.03-.04-.08-.04Z" style="fill: red;"/>
    <path d="M216.75,21.07c.18-.41.56-1.3.79-1.87.02-.04.01-.09-.01-.13-.03-.04-.07-.06-.12-.06-1.26,0-2.46,0-3.66,0-1.18,0-2.34,0-3.55,0-.24,0-.31.11-.34.21l-.89,2.81s0,.06.01.07c0,.01.03.03.06.03h2.93c.1,0,.31,0,.34.09.04.09-.1.25-.17.32l-4.75,4.81s-.04.1,0,.14c.03.03.07.04.13.02.26-.07.51-.13.86-.13.96,0,2.17.29,3.08,1.48,1.39,1.82,3.44,3.04,5.21,3.11,1.16.05,2.17-.38,2.98-1.28.06-.06.06-.16.02-.23-.03-.06-.07-.05-.08-.05-.98.11-1.93-.5-2.91-1.85-1.46-2.03-3.22-3.09-5.16-2.97-.1,0-.16.02-.19-.07-.03-.09.02-.14.1-.2l5.19-4.11c.06-.04.1-.1.13-.16Z" style="fill: red;"/>
    <path d="M204.82,19.39h0s-2.58,8.11-2.58,8.11c-.01.04,0,.06.01.08.02.02.04.04.07.04h.75c.37,0,.73,0,1.09,0,.62,0,1.23,0,1.84.01.2,0,.27-.05.35-.3l2.64-8.2s0-.06-.01-.08-.04-.04-.07-.04h-.2c-.32,0-.63,0-.95,0-.8,0-1.63,0-2.45-.01-.3-.02-.4.08-.5.4Z" style="fill: red;"/>
    <path d="M227.04,29.51c-.72.11-2.14-.01-3.54-2.16-1.31-2.01-2.93-2.51-4.04-2.51-.09,0-.15.01-.18-.08-.03-.09,0-.14.08-.2l4.63-3.65c.06-.04.1-.1.13-.16.15-.35.46-1.07.65-1.54.02-.04.01-.09-.01-.13-.03-.04-.07-.06-.12-.06-1.07,0-2.05,0-3.02,0-.97,0-1.93,0-2.96,0-.16,0-.25.11-.27.17l-.93,2.38s0,.06,0,.07.03.03.06.03h2.43c.1,0,.26-.01.31.08.03.05-.03.12-.21.28l-4.09,4.01s-.11.22.13.2c.13-.02.34-.06.61-.06.72,0,1.8.2,2.59,1.23,1.45,1.88,3.3,3.03,5.07,3.15,1.08.07,2.04-.24,2.71-.9.04-.04.04-.1.03-.11,0-.02-.05-.04-.09-.04Z" style="fill: red;"/>
    <path d="M193.96,28.39l2.54-8.19c.27-.93.39-1.3.72-2.14.2-.5.81-.73,1.27-.65.3.05.54.23.66.49.17.38.2.59.23,1.15-.04.7-.26,2.43-1.42,3.55-.17.17-.4.3-.64.38-.24.08-.47.06-.66-.03-.03-.01-.06-.02-.09,0-.02,0-.04.02-.05.06-.19.65-.06,1.49.87,1.93h0c.15.05.27.1.4.13,1.28.25,2.37,0,3.42-.77,1.71-1.26,2.56-3.12,2.4-5.23-.07-.87-.43-1.59-1.05-2.1-.78-.63-1.7-.98-2.74-1.02-1.16-.05-2.34-.04-3.48-.04-.88,0-1.8,0-2.7-.01,0,0-.02,0-.03,0-.28,0-.44.11-.51.35l-3.9,12.24c-.02.07-.01.15.04.22s.12.1.19.1h4.03c.31,0,.41-.08.5-.39Z" style="fill: red;"/>
    <path d="M235.58,12.48c-1.97-.77-7.73-3.05-9.99-4.12-.11-.05-.18-.15-.2-.26-.23-1.17-.64-3.23-.88-4.46-.11-.58-.62-.99-1.21-.99h-16.72c-.43,0-.83.22-1.05.59-.68,1.12-2.17,3.55-2.97,4.86-.08.13-.17.2-.31.26-3.67,1.46-10.68,3.78-12.21,4.28-.19.06-.34.21-.41.4-.17.44.16.91.63.91h45.06c.33,0,.62-.21.72-.52.13-.38-.07-.8-.44-.95Z" style="fill: red;"/>
  </g>
  <g>
    <path d="M150.38,77.43c1.68-1.56,4.08-3.35,7.04-5.07.26.56.43,1.17.44,1.83.05,2.44-1.88,4.45-4.31,4.5-1.23.02-2.35-.46-3.17-1.26M160.62,77.94c7.87-4.35,10.61-8.27,9.86-10.13-.6-1.49-5.78-.37-12.98,3.49-7.04,3.78-11.18,8.14-10.56,9.44.66,1.38,7.89.41,13.69-2.81M145.82,54.28l.2-.24h0c-4.48,3.22-7.39,8.48-7.39,14.42,0,0,0,.01,0,.02v14.38s5.41,0,5.41,0c0,0-.18-.06-.19-.06-.8-.29-1.09-.53-1.41-.87-.67-.69-1.64-3.58,4.84-9.43,1.65-1.49,4.09-3.18,6.6-4.65.77-.45,1.51-.86,1.86-1.06-1.05.09-2.88.84-4.4,1.63-1.95,1.02-6.06,3.68-7.57,5.31-.02-.29-.07-.78-.39-2.28-.31-1.42-1.2-4.11-1.06-7.14.15-3.32,1.42-5.22,2.71-6.64.3-.33.87-.92.68-1.43-.29-.77-.35-1.34.12-1.95M172.62,63.33c.64.28.89.53.9.53-2.02-7.57-8.93-13.15-17.14-13.15-2.78,0-5.41.64-7.75,1.78,0,0,.22-.06.34-.09.89-.16,1.32.28,1.89,1.03.28.37,1.08.29,1.48.22.73-.13,2.5-.4,4.81.27,4.82,1.4,7.84,6.7,10.1,7.93,1.25.68,2.37.74,3.46.95.86.16,1.49.34,1.92.53M150.96,82.86h23.02v-14.4c0-.79-.04-1.22-.04-1.22-1.91,6.69-13.92,14.12-22.98,15.62" style="fill: #5d2994;"/>
    <g>
      <polygon points="171.85 85.23 170.68 85.23 170.68 90.04 173.98 90.04 173.98 89.03 171.85 89.03 171.85 85.23" style="fill: #1d1819;"/>
      <polygon points="167.86 85.23 166.69 85.23 166.69 90.04 169.99 90.04 169.99 89.03 167.86 89.03 167.86 85.23" style="fill: #1d1819;"/>
      <polygon points="165.9 85.23 162.29 85.23 162.29 90.04 165.96 90.04 165.96 89.03 163.46 89.03 163.46 88.1 165.5 88.1 165.5 87.12 163.46 87.12 163.46 86.24 165.9 86.24 165.9 85.23" style="fill: #1d1819;"/>
      <path d="M146.71,87.64c0,1.38.85,2.49,2.47,2.49.94,0,1.57-.36,2.02-.87l-.97-.72c-.21.28-.55.51-1.07.51-.77,0-1.21-.59-1.21-1.4s.45-1.42,1.25-1.42c.47,0,.78.23.96.52l.95-.68c-.43-.54-1.02-.91-1.91-.91-1.62,0-2.48,1.11-2.48,2.49" style="fill: #1d1819;"/>
      <polygon points="142.78 85.23 138.66 85.23 138.66 86.24 140.13 86.24 140.13 90.04 141.3 90.04 141.3 86.24 142.78 86.24 142.78 85.23" style="fill: #1d1819;"/>
      <path d="M174.92,89.58c.07-.02.11-.08.11-.15,0-.12-.08-.19-.22-.19h-.27v.57h.17v-.2h.05l.1.2h.18l-.12-.22ZM174.77,89.5h-.06v-.14h.06c.05,0,.08.03.08.07s-.03.07-.08.07Z" style="fill: #1d1819;"/>
      <path d="M174.77,89.01c-.28,0-.52.2-.52.52s.24.52.52.52.51-.2.51-.52-.24-.52-.51-.52ZM174.77,89.95c-.22,0-.41-.16-.41-.42s.19-.42.41-.42.41.16.41.42-.19.42-.41.42Z" style="fill: #1d1819;"/>
      <path d="M144.94,85.23h-.98l-2.05,4.82h1.24l.27-.7h1.93l.26.7h1.3l-1.97-4.82ZM143.77,88.38l.63-1.71.58,1.71h-1.21Z" style="fill: #1d1819;"/>
      <path d="M153.72,85.15c-1.53,0-2.46,1.11-2.46,2.49s.93,2.49,2.46,2.49,2.46-1.11,2.46-2.49-.94-2.49-2.46-2.49ZM153.72,89.03c-.78,0-1.23-.59-1.23-1.4s.45-1.42,1.23-1.42,1.22.6,1.22,1.42-.45,1.4-1.22,1.4Z" style="fill: #1d1819;"/>
      <path d="M160.79,87.44c.46-.23.67-.54.67-1.07,0-.72-.56-1.14-1.67-1.14h-1.86v4.82h2.09c1.22,0,1.82-.45,1.82-1.38,0-.65-.36-1.08-1.05-1.22ZM159.04,86.16h.46c.56,0,.79.12.79.46,0,.36-.22.5-.66.5h-.59v-.96ZM159.73,89.04h-.7v-1h.72c.63,0,.89.14.89.5,0,.39-.21.5-.91.5Z" style="fill: #1d1819;"/>
    </g>
  </g>
  <g>
    <path d="M193.8,63.19c.37.06.73,0,1.09-.07.18-.03.25-.19.28-.36.03-.23.04-.45.04-.68,0-1.59,0-3.18,0-4.77,0-.15,0-.29.04-.43.08-.29.27-.47.57-.53.32-.06.65-.04.97.01.42.06.82,0,1.24-.03.19-.02.37-.03.56-.03.4,0,.73.14.91.52.04.3.06.6.03.9-.05.53-.08,1.07-.08,1.6-.02,1.24.01,2.48.03,3.72.02,1.39,0,2.77-.02,4.16-.03,1.68-.01,3.36-.02,5.04,0,.61.01,1.22.09,1.82.04.27,0,.53-.07.79-.08.27-.27.44-.54.5-.31.08-.63.06-.94.03-.41-.04-.81-.05-1.21-.01-.36.03-.71.05-1.07.03-.31-.11-.44-.35-.49-.66-.08-.46-.05-.92-.02-1.38.05-.83.1-1.65.05-2.48-.03-.54.02-1.09.06-1.63.03-.47.04-.94-.08-1.4,0-.22-.13-.34-.33-.39-.38-.1-.75-.09-1.13,0-.25.06-.35.19-.38.45-.01.12,0,.24-.02.36-.08.7-.06,1.39.02,2.09.07.61.04,1.21,0,1.82-.03.55-.05,1.1,0,1.65.03.33.04.66.03,1-.01.32-.23.55-.55.58-.12.01-.24,0-.36,0-.37,0-.74-.07-1.12-.04-.43.04-.86.03-1.29.04-.16,0-.32,0-.48-.05-.31-.1-.45-.33-.46-.64,0-.1,0-.19,0-.29,0-1.08.01-2.16.02-3.24,0-.66-.06-1.31-.05-1.97.02-1.13.06-2.27.04-3.4-.01-.66-.04-1.33-.05-1.99,0-.46.04-.92.07-1.38.08-1.39.1-2.79.04-4.18-.01-.24-.03-.49-.04-.73,0-.18,0-.36.05-.53.1-.38.33-.58.73-.59.19,0,.39,0,.58,0,.6.01,1.2,0,1.8-.03.15,0,.31,0,.46.02.31.05.55.18.66.5,0,.12,0,.24,0,.37,0,1.16,0,2.32-.09,3.48-.05.66.08,1.31,0,1.97-.03.28.14.44.43.49Z" style="fill: #1d1819;"/>
    <path d="M214.2,60.99c.05-.04.11-.07.15-.12.54-.53,1.22-.75,1.95-.81.32-.03.65-.02.97.06.44.11.83.33,1.14.66.12.13.24.26.36.39.06.2.2.35.29.53.37.68.6,1.42.78,2.17.39,1.56.58,3.15.64,4.76.02.49.07.97.11,1.45.06.7.1,1.4,0,2.11-.15.96-.56,1.79-1.29,2.44-.55.49-1.22.71-1.94.72-.54,0-1.06-.13-1.53-.43-.24-.15-.29-.1-.35.17,0,.02,0,.03,0,.05-.05.26-.12.34-.37.37-.2.03-.4.05-.6.05-.49.02-.97.09-1.44.18-.35.07-.7.16-1.06.11-.37-.15-.5-.45-.52-.83-.05-.88-.16-1.76-.28-2.64-.14-1.07-.3-2.13-.44-3.2-.07-.53-.09-1.07-.15-1.6-.09-.78-.2-1.56-.32-2.34-.11-.77-.2-1.54-.27-2.32-.09-.93-.2-1.85-.32-2.78-.07-.59-.14-1.17-.22-1.76-.03-.23-.08-.46-.12-.69-.11-.56.07-.8.65-.84.36-.02.71-.04,1.07-.06.45-.03.87-.18,1.31-.25.07-.01.14-.03.22-.03.4-.02.57.08.74.45.04.3.08.59.08.89,0,.39.06.77.12,1.16.09.59.21,1.18.23,1.78,0,.06.01.13.03.19.04.13.14.17.27.12.06-.02.1-.06.13-.11ZM215.54,71.02c.36.16.68.06.86-.28.11-.2.13-.42.13-.64-.04-1.46-.14-2.92-.42-4.35-.08-.41-.15-.83-.36-1.2-.1-.2-.26-.33-.46-.42-.23-.1-.38-.07-.55.1-.33.33-.39.75-.36,1.19.02.27.05.53.08.8.04.39.06.79.11,1.18.07.53.15,1.06.23,1.58.08.49.15.99.29,1.48.07.25.19.47.45.56Z" style="fill: #1d1819;"/>
    <path d="M201.41,64.08c-.06-.04-.12-.08-.18-.12-.17-.12-.27-.28-.28-.49,0-.16-.02-.32-.01-.49.02-.39.01-.78,0-1.17-.02-.66.08-.82.7-1.05.74-.27,1.49-.43,2.28-.42.49,0,.99-.04,1.48,0,.8.06,1.59.18,2.34.48.48.19.9.47,1.22.89.01.01.03.02.04.04h0c-.01.07.03.14.06.2.08.18.14.36.19.55.1.44.14.88.14,1.33,0,1.44,0,2.89,0,4.33,0,1.21-.08,2.41,0,3.62.06,1-.04,1.99-.04,2.99,0,.02,0,.05,0,.07-.02.25-.15.42-.4.5-.13.04-.25.05-.38.05-.53-.01-1.05-.06-1.58-.04-.27,0-.55.03-.82.09-.14-.02-.28-.02-.38-.15,0-.14,0-.29-.04-.43-.05-.16-.15-.19-.29-.08-.03.03-.06.06-.09.08-.34.29-.71.54-1.17.6-.33.05-.65.06-.99.04-.51-.04-.98-.17-1.42-.43-.06-.04-.12-.08-.2-.08-.87-.7-1.25-1.67-1.45-2.73-.27-1.45-.25-2.9.04-4.35.1-.48.25-.94.49-1.37.7-1.22,1.77-1.75,3.15-1.71.39.01.76.14,1.11.33.17.09.34.17.52.05.2-.13.21-.33.18-.54-.03-.18-.06-.37-.15-.54-.11-.27-.33-.4-.6-.47-.43-.11-.86-.13-1.3-.09-.49.04-.98.11-1.41.38-.24.15-.49.19-.76.13ZM205.29,68.62c-.26-.53-.8-.62-1.21-.21-.21.21-.31.47-.35.76-.07.55-.04,1.1-.03,1.65,0,.3.04.6.18.87.09.18.19.36.41.41.36.14.66.06.89-.23.15-.2.25-.42.25-.67,0-.67.01-1.35.01-2.02,0-.2-.04-.39-.16-.55Z" style="fill: #1d1819;"/>
    <path d="M226.58,64.83c-.05-.02-.11-.03-.16-.05-.13-.03-.2-.12-.23-.25-.04-.18-.04-.35-.03-.53.04-.72.02-1.44.03-2.17,0-.06,0-.11,0-.17,0-.41.09-.49.49-.48,0,0,.02,0,.02,0,.3.02.46,0,.41-.43-.03-.18-.02-.37,0-.56.03-.51,0-1.02-.05-1.53-.03-.24-.04-.48.03-.72.04-.13.09-.26.17-.37.12-.16.27-.25.48-.25.07,0,.15,0,.22,0,.69.03,1.38.06,2.07,0,.09,0,.18,0,.27,0,.35-.01.61.12.75.46.04.37.03.74,0,1.11,0,.06.01.13.02.19.02.3.02.6,0,.89-.03.33-.04.66-.03.99,0,.17.06.23.23.25.06,0,.13,0,.19-.01.05,0,.09,0,.14,0,0,0,0,0,0,0,.08-.03.16-.02.24-.02.19.02.34.1.38.3,0,.04.03.08.04.11,0,.11,0,.21-.02.32-.04.38-.03.76,0,1.14.04.48.03.96.02,1.43,0,.22-.12.32-.34.33-.14,0-.28,0-.41,0-.31,0-.41.09-.41.4,0,.27,0,.54,0,.8,0,1.61,0,3.21,0,4.82,0,.14,0,.28.08.4.08.13.19.22.36.16.05,0,.09,0,.14,0,.21,0,.36.08.45.28.02.05.05.1.08.15,0,.94,0,1.88,0,2.82,0,.46-.2.66-.65.65-.47,0-.94-.03-1.41.01-.36.03-.73.04-1.09.04-.32,0-.63-.06-.92-.19-.06-.03-.12-.04-.18-.06-.55-.39-.78-.95-.87-1.59-.07-.5-.05-1-.03-1.5.03-.68.04-1.36.04-2.04,0-1.58,0-3.16.04-4.74,0-.04,0-.08,0-.12,0-.22-.06-.28-.28-.29-.09,0-.17,0-.26,0Z" style="fill: #1d1819;"/>
    <path d="M221.78,75.31c-.31-.1-.45-.33-.46-.65,0-.25,0-.5,0-.75.06-1.87.06-3.75.05-5.62,0-.5,0-1.01.04-1.51.02-.22.02-.44.02-.66,0-1.37,0-2.74,0-4.11,0-.32-.02-.65-.04-.97-.04-.55.32-.73.72-.76.13,0,.26,0,.39.01.7.06,1.39,0,2.09-.01.12,0,.24,0,.36,0,.31,0,.51.14.59.44.04.23.04.47.02.7-.05.62-.09,1.25-.08,1.87,0,.23.03.45.03.68.02,1.12.03,2.24-.03,3.36-.03.54,0,1.09.03,1.63.03.7.04,1.4,0,2.09-.07.98-.02,1.96.05,2.94.02.27.03.53-.04.8-.09.33-.31.51-.65.51-.15,0-.29,0-.44-.02-.24-.04-.49-.03-.73-.02-.64.03-1.28.11-1.92.05Z" style="fill: #1d1819;"/>
    <path d="M189.58,77.87c.7.03,1.4.05,2.12.03-.03-.08-.08-.07-.11-.07-.72-.02-1.44-.09-2.16-.15-.06,0-.13-.02-.19-.03-.06-.02-.06-.07-.06-.12,0-.05.05-.06.09-.06.21,0,.42,0,.63.01.93.03,1.85.07,2.78.08.74,0,1.48.05,2.22.05.06,0,.13.02.19-.03,0-.02-.02-.04-.05-.04-1-.04-1.98-.18-2.97-.33-.6-.09-1.21-.14-1.81-.21-.31-.04-.63-.07-.94-.1-.07,0-.13-.02-.13-.11,0-.1.07-.09.14-.09.3,0,.6,0,.9,0,4.07.01,8.14.02,12.2.03,3.84,0,7.68,0,11.52.03,2.72.02,5.44.01,8.16.02,3.24,0,6.48.01,9.72.02.05,0,.1,0,.15,0,.08,0,.13.03.12.11-.01.1.02.21-.02.32-.23,0-.46,0-.69,0-1.08-.04-2.16-.08-3.24-.13-1.85-.1-3.7,0-5.55-.08-.37-.01-.75-.02-1.12-.03-.34,0-.68.02-1,.13,0,.11.09.09.14.09.48,0,.96.03,1.44.05,1.61.07,3.23.09,4.85.11.3,0,.6,0,.9-.01,1.19,0,2.39-.01,3.58-.02.07,0,.15,0,.24.01-.08.07-.16.06-.24.07-1.2.13-2.4.15-3.6.21-1.39.07-2.78.07-4.16.02-.58-.02-1.17-.05-1.75-.08-.08,0-.17-.02-.29.03.14.05.26.07.38.08.66.03,1.33.06,2,.05,1.4-.02,2.79,0,4.19.04.07,0,.14.01.21.02-2.1.09-4.21.1-6.31.05-1.33-.03-2.66-.1-3.99-.11-1.11-.01-2.22.01-3.34.06-1.05.04-2.09.05-3.14.08-1.42.03-2.84.05-4.26.09-1.06.03-2.13.08-3.19.12-2.31.09-4.62.15-6.94.07-1.65-.06-3.29-.16-4.94-.16-.76,0-1.52-.09-2.29-.09-.12,0-.24-.03-.35-.05ZM200.27,77.84s0,.04.03.02c-.01,0-.02-.01-.03-.02-.16-.08-.26-.08-.45,0,.15,0,.29.05.44,0ZM198.21,77.85c-.9-.02-1.8.09-2.69.16.91.15,1.81.09,2.69-.16ZM202.74,77.95c.29.06,1.53-.04,1.72-.13-.6-.01-1.16.08-1.72.13ZM204.61,77.82c.08.03.14.04.24-.02-.1,0-.17-.03-.24.02Z" style="fill: #ffa200;"/>
    <path d="M200.88,85.91c-1.9-.11-3.77-.15-5.64-.18-1.86-.04-3.73.07-5.59,0,.31-.1.63-.1.95-.12.5-.04,1-.07,1.51-.09,1.31-.06,2.61-.13,3.92-.12.84,0,1.69.04,2.53.09.38.03.76.03,1.14-.01-.3-.05-.61-.08-.91-.09-1.75-.07-3.51-.02-5.26-.05-.2,0-.4,0-.61-.03.15-.01.3-.04.45-.04,1.75-.05,3.51-.08,5.26-.04,1.43.03,2.86.09,4.28.12,1.36.03,2.73,0,4.09-.07.62-.03,1.23-.04,1.85-.05,1.89-.04,3.78-.07,5.67-.11,1.01-.03,2.01-.09,3.02-.12,1.89-.06,3.78-.12,5.67-.08,2.22.05,4.43.17,6.65.22.57.01,1.14.03,1.7.09.05,0,.1,0,.13.03-.26,0-.53,0-.8,0-.28,0-.55.04-.82.08-.28.03-.56.06-.83.08,0,.1.06.09.1.09.67.07,1.33.18,2,.29.12.02.21.14.39.06-1.8-.1-3.54-.26-5.31-.32.06.09.13.07.18.07.68.03,1.36.12,2.03.21.61.09,1.23.13,1.84.18.49.04.97.07,1.46.1.15.01.22.13.16.27-.01.04-.04.05-.07.05-.06,0-.13,0-.19,0-1.49,0-2.97,0-4.46,0-4.76-.03-9.52,0-14.27-.04-4.22-.03-8.44-.02-12.67-.03-3.67,0-7.34-.02-11.01-.03-.05,0-.1,0-.15,0-.04,0-.08-.02-.08-.07,0-.05.04-.07.08-.07.11,0,.23-.02.34-.02,1.61-.04,3.21-.09,4.82-.08,1.4,0,2.81,0,4.21.02.28,0,.57,0,.85.03.39.03.78-.01,1.16-.09.07-.01.14-.02.23-.11ZM222.85,85.28c.21.04.41.02.61,0,.69-.05,1.39-.12,2.08-.14.18,0,.37,0,.56,0-.02-.06-.06-.09-.1-.09-1.05-.08-2.1-.04-3.16.22ZM218.77,85.11c-.6,0-1.21.04-1.8.16.6-.05,1.2-.05,1.8-.16ZM221.07,85.26c.13.04.27.06.46,0-.19-.03-.32-.03-.46,0Z" style="fill: #ffa200;"/>
    <path d="M221.96,59.01c-.27-.05-.39-.24-.43-.49-.02-.1-.03-.19-.04-.29-.02-.4-.03-.79-.04-1.19,0-.11,0-.23.03-.34.05-.3.24-.47.55-.49.25-.01.5-.02.75.01.45.05.91.03,1.36,0,.27-.01.54,0,.8-.03.23-.02.37.07.45.28.02.05.03.09.08.12.03.6-.02,1.2.04,1.8.03.32-.17.52-.49.55-.14.01-.28.01-.41,0-.88-.04-1.76.03-2.65.06Z" style="fill: #ffa200;"/>
    <path d="M234.41,74.76c0,.35-.29.65-.65.65-.38,0-.68-.28-.68-.64,0-.38.28-.67.66-.67.37,0,.67.3.67.66ZM234.02,75.18c.26-.17.32-.46.16-.71-.15-.24-.48-.31-.72-.15-.24.16-.3.49-.14.73.16.24.47.29.71.12h0Z" style="fill: #1d1819;"/>
    <path d="M209,61.77s-.03-.02-.04-.04c.03,0,.04.02.04.04Z" style="fill: #1d1819;"/>
    <path d="M231.57,61.22s0,0,0,0,0,0,0,0Z" style="fill: #1d1819;"/>
    <path d="M200.27,77.84s.02.01.03.02c-.02.02-.03.01-.03-.02h0Z" style="fill: #1d1819;"/>
    <path d="M234.02,75.17c-.12-.06-.18-.17-.24-.28-.02-.04-.06-.09-.12-.06-.05.02-.03.07-.04.11-.01.07.04.2-.07.2-.11,0-.06-.13-.06-.2,0-.14,0-.29,0-.44,0-.08.03-.12.11-.12.07,0,.15,0,.22,0,.09,0,.18.03.21.12.04.1.02.19-.07.26-.02.02-.05.04-.07.06.02.13.19.2.12.35,0,0,0,0,0,0ZM233.74,74.7c.07-.01.17,0,.17-.11,0-.1-.09-.1-.16-.11-.09-.01-.11.05-.11.12,0,.06.02.11.11.11Z" style="fill: #1d1819;"/>
    <g>
      <path d="M193.05,81.41c.14-.07.25-.18.32-.32.07-.16.11-.4.11-.71,0-.4-.09-.71-.28-.91-.19-.2-.47-.3-.85-.3h-.82s-.07,0-.13,0c-.07,0-.12,0-.17,0-.15,0-.27.02-.35.07-.08.05-.13.12-.13.21,0,.05,0,.12.01.21,0,.09.01.16.01.2,0,.18,0,.41-.01.7,0,.28-.01.48-.01.6,0,.13,0,.33.02.6.01.27.02.48.02.62,0,.09,0,.26-.02.48-.01.22-.02.4-.02.54,0,.3,0,.48.02.56.01.08.04.14.08.16.04.02.08.04.13.05.05.01.12.02.21.02h.95c.48,0,.84-.12,1.06-.37.22-.24.33-.63.33-1.15,0-.37-.04-.65-.13-.84-.08-.18-.2-.31-.37-.39ZM192.08,82.06c.13,0,.21.04.27.12.06.08.08.21.08.39,0,.17-.03.3-.1.39-.06.09-.15.13-.26.13-.07,0-.13-.02-.16-.06-.03-.04-.05-.11-.05-.2v-.57c0-.07.02-.12.05-.16.03-.03.09-.05.16-.05ZM192.29,80.85c-.06.07-.16.1-.29.1-.03,0-.06,0-.08-.03-.02-.02-.03-.04-.03-.07v-.56s.01-.08.04-.1c.03-.02.08-.03.15-.03.09,0,.16.03.22.1.06.07.09.16.09.27,0,.14-.03.24-.1.31Z" style="fill: #1d1819;"/>
      <path d="M196.76,79.16h-.53c-.13,0-.23.03-.28.09-.05.06-.08.17-.08.32v3.1c0,.12-.03.21-.09.27-.06.06-.14.09-.26.09s-.2-.03-.26-.11c-.06-.07-.08-.19-.08-.35v-3.02c0-.17-.02-.28-.07-.33-.05-.05-.13-.07-.25-.07h-.56c-.11,0-.18.03-.22.1-.04.06-.06.2-.06.42v2.65c0,.43.02.75.06.95.04.19.11.36.2.49.12.16.27.28.46.37.19.08.42.12.68.12.55,0,.97-.14,1.22-.41.26-.27.39-.71.39-1.29v-3c0-.13-.02-.23-.06-.29-.04-.06-.11-.09-.21-.09Z" style="fill: #1d1819;"/>
      <path d="M200.68,83.82l-.62-1.41c.18-.1.31-.26.39-.49.08-.23.12-.58.12-1.06,0-.62-.1-1.06-.29-1.33-.19-.27-.53-.4-.99-.4-.1,0-.24,0-.41.01-.17,0-.29.01-.35.01-.04,0-.12,0-.24,0-.12,0-.22,0-.3,0-.15,0-.26.03-.31.09-.06.06-.09.18-.09.37v4.09c0,.21.02.33.06.39.04.06.12.08.23.08h.61c.09,0,.15-.03.19-.08.04-.05.06-.12.06-.23v-1.43h.08l.53,1.35s.02.06.04.11c.06.18.17.27.31.27h.58s.05,0,.08,0c.04,0,.06,0,.08,0,.08,0,.14-.02.19-.06.05-.04.07-.09.07-.16,0-.02,0-.04,0-.06,0-.02-.01-.04-.03-.07ZM199.42,81.18c0,.13-.03.24-.1.32-.07.08-.15.12-.26.12-.12,0-.2-.03-.25-.08-.03-.04-.06-.15-.06-.47,0-.08,0-.18,0-.29,0-.11,0-.17,0-.2,0-.12.02-.21.07-.26.05-.06.12-.08.21-.08.15,0,.26.05.31.15.06.11.09.37.09.79Z" style="fill: #1d1819;"/>
      <path d="M203.58,80.94h-.4c-.22,0-.36.04-.42.13-.05.08-.08.29-.08.62,0,.11.02.2.05.26.03.06.09.11.17.14.05.02.09.04.12.07.03.03.04.05.04.08v.38c0,.14-.02.24-.05.29-.03.05-.08.07-.14.07-.18,0-.3-.1-.38-.32-.08-.22-.13-.57-.13-1.06,0-.43.08-.75.22-.96.15-.2.38-.31.68-.31.08,0,.16.01.26.04.1.03.17.04.19.04.11,0,.18-.04.22-.13.04-.08.06-.28.06-.61,0-.2-.06-.34-.19-.41-.12-.08-.34-.11-.66-.11-.61,0-1.1.24-1.46.71-.36.47-.54,1.12-.54,1.93,0,.75.17,1.35.51,1.78.34.44.8.66,1.38.66.2,0,.37-.02.53-.06.16-.04.28-.1.38-.17.04-.03.07-.07.08-.13.02-.05.02-.14.02-.28v-2.17c0-.19-.03-.32-.1-.4-.07-.07-.19-.11-.37-.11Z" style="fill: #1d1819;"/>
      <path d="M206.55,82.94h-.08c-.18,0-.36,0-.52,0-.12,0-.16-.02-.18-.04-.01-.01-.04-.06-.04-.2v-.41c0-.13.03-.17.04-.18.02-.01.06-.03.15-.03s.2,0,.33.01c.12,0,.2.01.23.01.1,0,.18-.04.23-.12.05-.08.07-.2.07-.36v-.2c0-.21-.03-.34-.08-.4-.05-.06-.15-.09-.3-.09-.07,0-.16,0-.26.01-.11,0-.17,0-.2,0-.09,0-.15-.02-.18-.05-.02-.02-.04-.09-.04-.27v-.09c0-.1.01-.17.04-.2.02-.03.07-.05.14-.05h.32s.08,0,.13,0c.06,0,.1,0,.12,0,.14,0,.23-.03.28-.08.05-.05.08-.14.08-.28v-.06c0-.12,0-.24,0-.36,0-.15-.03-.24-.08-.3-.06-.06-.16-.08-.3-.08-.03,0-.07,0-.11,0h-.02s-.04,0-.06,0c-.03,0-.05,0-.05,0h-1.08c-.24,0-.38.02-.44.08-.06.05-.09.15-.09.29,0,.03,0,.07,0,.11,0,.04,0,.06,0,.07v3.34c0,.12-.02.27-.03.44-.02.18-.03.31-.03.38,0,.1.03.17.09.23.06.06.14.08.25.08.06,0,.15,0,.26-.01.11,0,.19-.01.23-.01.17,0,.39,0,.64.01.25,0,.42.01.5.01.15,0,.26-.04.31-.1.05-.07.08-.26.08-.57,0-.24-.02-.38-.06-.45-.04-.06-.13-.1-.26-.1Z" style="fill: #1d1819;"/>
      <path d="M210.4,83.82l-.62-1.41c.18-.1.31-.26.39-.49.08-.23.12-.58.12-1.06,0-.62-.1-1.06-.29-1.33-.19-.27-.53-.4-.99-.4-.1,0-.24,0-.41.01-.17,0-.29.01-.35.01-.04,0-.12,0-.24,0-.12,0-.22,0-.3,0-.15,0-.26.03-.31.09-.06.06-.09.18-.09.37v4.09c0,.21.02.33.06.39.04.06.12.08.23.08h.61c.09,0,.15-.03.19-.08.04-.05.06-.12.06-.23v-1.43h.08l.53,1.35s.02.06.04.11c.06.18.17.27.31.27h.58s.05,0,.08,0c.04,0,.06,0,.08,0,.08,0,.14-.02.19-.06.05-.04.07-.09.07-.16,0-.02,0-.04,0-.06,0-.02-.01-.04-.03-.07ZM209.13,81.18c0,.13-.03.24-.1.32-.07.08-.15.12-.26.12-.12,0-.2-.03-.25-.08-.03-.04-.06-.15-.06-.47,0-.08,0-.18,0-.29,0-.11,0-.17,0-.2,0-.12.02-.21.07-.26.05-.06.12-.08.21-.08.15,0,.26.05.31.15.06.11.09.37.09.79Z" style="fill: #1d1819;"/>
      <path d="M215.51,81.68c0-.08-.03-.14-.08-.19-.05-.04-.13-.06-.23-.06-.02,0-.06,0-.13,0-.06,0-.11,0-.14,0-.02,0-.04,0-.09,0-.04,0-.08,0-.11,0-.09,0-.15.03-.18.08-.03.05-.04.18-.04.38v.07s0,.03,0,.07c0,.03,0,.07-.01.11h-.02s-.31-.64-.31-.64c.23-.24.41-.48.53-.7.12-.22.18-.44.18-.65,0-.31-.1-.56-.3-.75-.2-.19-.46-.29-.78-.29-.35,0-.64.11-.87.33-.22.22-.34.5-.34.84,0,.14.03.29.08.44.05.15.13.31.24.47-.28.22-.49.45-.61.67-.12.23-.19.49-.19.79,0,.46.13.84.37,1.12.25.29.58.43.98.43.18,0,.33-.03.47-.08.13-.05.24-.12.34-.22.03.07.06.13.09.17.04.05.09.08.13.08,0,0,.02,0,.1-.01.05,0,.1,0,.15,0,.07,0,.15,0,.25.01.1,0,.17.01.2.01.07,0,.13-.02.17-.06.04-.04.06-.09.06-.16,0-.02,0-.04-.01-.06,0-.02-.02-.05-.04-.08l-.35-.66c.14-.21.26-.46.34-.73.09-.28.13-.53.13-.74ZM213.73,83.15c-.05.01-.1.02-.14.02-.12,0-.22-.06-.31-.17-.09-.11-.14-.24-.14-.39,0-.1.02-.2.07-.29.04-.08.09-.16.16-.22l.51.99c-.05.03-.1.05-.15.06ZM213.51,80.21c0-.1.03-.17.08-.23.05-.06.12-.08.21-.08s.15.03.2.08c.05.05.07.13.07.22,0,.07-.02.15-.06.23-.04.08-.13.19-.27.34-.08-.12-.13-.22-.17-.31-.04-.09-.06-.18-.06-.25Z" style="fill: #1d1819;"/>
      <path d="M219.55,80.94h-.4c-.22,0-.36.04-.42.13-.05.08-.08.29-.08.62,0,.11.02.2.05.26.03.06.09.11.17.14.05.02.09.04.12.07.03.03.04.05.04.08v.38c0,.14-.02.24-.05.29-.03.05-.08.07-.14.07-.18,0-.3-.1-.38-.32-.08-.22-.13-.57-.13-1.06,0-.43.08-.75.22-.96.15-.2.38-.31.68-.31.08,0,.16.01.26.04.1.03.17.04.19.04.11,0,.18-.04.22-.13.04-.08.06-.28.06-.61,0-.2-.06-.34-.19-.41-.12-.08-.34-.11-.66-.11-.61,0-1.1.24-1.46.71-.36.47-.54,1.12-.54,1.93,0,.75.17,1.35.51,1.78.34.44.8.66,1.38.66.2,0,.37-.02.53-.06.16-.04.28-.1.38-.17.04-.03.07-.07.08-.13.02-.05.02-.14.02-.28v-2.17c0-.19-.03-.32-.1-.4-.07-.07-.19-.11-.37-.11Z" style="fill: #1d1819;"/>
      <path d="M223.65,83.82l-.62-1.41c.18-.1.31-.26.39-.49.08-.23.12-.58.12-1.06,0-.62-.1-1.06-.29-1.33-.19-.27-.53-.4-.99-.4-.1,0-.24,0-.41.01-.17,0-.29.01-.35.01-.04,0-.12,0-.24,0-.12,0-.22,0-.3,0-.15,0-.26.03-.31.09-.06.06-.09.18-.09.37v4.09c0,.21.02.33.06.39.04.06.12.08.23.08h.61c.08,0,.15-.03.19-.08.04-.05.06-.12.06-.23v-1.43h.08l.53,1.35s.02.06.04.11c.06.18.17.27.31.27h.58s.05,0,.08,0c.04,0,.06,0,.08,0,.08,0,.14-.02.19-.06.05-.04.07-.09.07-.16,0-.02,0-.04,0-.06,0-.02-.01-.05-.03-.07ZM222.38,81.18c0,.13-.03.24-.1.32-.07.08-.15.12-.26.12-.12,0-.2-.03-.25-.08-.03-.04-.06-.15-.06-.47,0-.09,0-.18,0-.29,0-.11,0-.17,0-.2,0-.12.02-.21.07-.26.05-.06.12-.08.21-.08.15,0,.26.05.31.15.06.11.09.37.09.79Z" style="fill: #1d1819;"/>
      <path d="M225.31,79.23s-.07-.05-.12-.06c-.05-.01-.12-.02-.23-.02h-.32c-.19,0-.3.02-.35.07-.05.05-.07.13-.07.27v.07c0,.22.01.44.01.66,0,1.02,0,2.06-.02,3.1,0,.2,0,.32,0,.36,0,.22.03.35.08.4.05.05.18.08.39.08h.24c.21,0,.33-.03.38-.09.05-.06.08-.17.08-.34,0-.11,0-.24,0-.41,0-.17,0-.28,0-.35,0-.13,0-.51.01-1.15,0-.63.01-1.21.01-1.7v-.41c0-.16,0-.27-.02-.33-.01-.07-.03-.11-.06-.14Z" style="fill: #1d1819;"/>
      <path d="M227.58,82.96s-.09,0-.15.01c-.06,0-.1,0-.12,0-.08,0-.13-.01-.17-.04-.03-.03-.06-.08-.07-.16,0-.05-.02-.21-.02-.47,0-.26,0-.88,0-1.85,0-.26,0-.54,0-.82v-.1c0-.12,0-.2-.02-.24-.01-.05-.03-.09-.06-.11-.02-.01-.03-.02-.06-.02-.02,0-.05,0-.08,0-.02,0-.08,0-.16,0-.08,0-.15,0-.21,0-.09,0-.18,0-.26,0-.03,0-.04,0-.05,0-.1,0-.17.03-.2.09-.03.06-.05.19-.05.4,0,.2,0,.48,0,.82,0,.34,0,.58,0,.72,0,.29,0,.69,0,1.18,0,.49,0,.85,0,1.07v.07c0,.3.02.48.06.55.04.08.12.12.23.12.03,0,.06,0,.1,0,.05,0,.07,0,.08,0h.86s.06,0,.12,0c.06,0,.12,0,.16,0,.14,0,.24-.03.31-.1s.1-.17.1-.3v-.36c0-.17-.02-.29-.07-.35-.05-.06-.14-.09-.26-.09Z" style="fill: #1d1819;"/>
      <path d="M230.34,83.05c-.05-.06-.14-.09-.26-.09-.04,0-.09,0-.15.01-.06,0-.1,0-.12,0-.08,0-.13-.01-.17-.04-.03-.03-.06-.08-.07-.16,0-.05-.02-.21-.02-.47,0-.26,0-.88,0-1.85,0-.26,0-.54,0-.82v-.1c0-.12,0-.2-.02-.24-.01-.05-.03-.09-.06-.11-.02-.01-.03-.02-.06-.02-.02,0-.05,0-.08,0-.02,0-.08,0-.16,0-.08,0-.15,0-.21,0-.09,0-.18,0-.26,0-.03,0-.04,0-.05,0-.1,0-.17.03-.2.09-.03.06-.05.19-.05.4,0,.2,0,.48,0,.82,0,.34,0,.58,0,.72,0,.29,0,.69,0,1.18,0,.49,0,.85,0,1.07v.07c0,.3.02.48.06.55.04.08.12.12.23.12.03,0,.06,0,.1,0,.05,0,.07,0,.08,0h.86s.06,0,.12,0c.06,0,.12,0,.16,0,.14,0,.24-.03.31-.1s.1-.17.1-.3v-.36c0-.17-.02-.29-.07-.35Z" style="fill: #1d1819;"/>
    </g>
  </g>
  <g>
    <path d="M61.69.81C28.33.81,1.29,20.59,1.29,44.98c0,10.17,4.71,19.53,12.61,27l-10.66,17.03c-.89,1.26-.38,2.04,1.13,1.74l27.56-7.34c8.79,3.65,18.94,5.74,29.76,5.74,33.36,0,60.4-19.78,60.4-44.17S95.05.81,61.69.81Z" style="fill: #e4002b;"/>
    <g>
      <path d="M31.65,51.24c.12-1.06.25-2.12.38-3.18l8.14-14,3.43-.56.33-2.42h-9.71l-.33,2.42,3.52.52-6.45,11.48-3.99-11.58,1.07-.14,2.25-.28.33-2.42h-13.47l-.33,2.42,2.85.3,5.73,14.97-1.1,8.97-3.82.41-.28,2.42h14.25l.33-2.42-3.82-.41c.06-.61.13-1.22.19-1.83.16-1.56.33-3.11.51-4.67Z" style="fill: #fff;"/>
      <path d="M97.44,57.82c-.08-1.21.28-2.24,1.06-3.07.79-.83,1.72-1.25,2.81-1.25,1.02,0,1.89.36,2.58,1.08.7.72,1.08,1.56,1.14,2.52.07,1.15-.29,2.13-1.09,2.95-.8.82-1.75,1.22-2.83,1.22-1.02,0-1.88-.34-2.56-1.03-.68-.69-1.05-1.49-1.11-2.42Z" style="fill: #fff;"/>
      <path d="M95.94,55.99c-.17.19-.34.37-.49.51-.49.45-.93.67-1.31.67-.23,0-.41-.07-.54-.22-.13-.15-.2-.37-.22-.67-.02-.24,0-.52.06-.83.05-.31.12-.68.21-1.1l1.51-8.49c.13-.72.22-1.4.28-2.04.06-.64.07-1.26.03-1.86-.08-1.29-.46-2.24-1.14-2.85-.68-.61-1.5-.92-2.46-.92s-2.02.24-3.09.72c-1.07.48-2.14,1.15-3.18,2.02-.71.59-1.42,1.27-2.12,2.04.02-.3.03-.63,0-1.01-.08-1.29-.45-2.24-1.12-2.85-.66-.61-1.47-.92-2.43-.92-1.02,0-2.06.24-3.14.72-1.07.48-2.15,1.15-3.23,2.02-.69.56-1.38,1.19-2.05,1.89l.52-3.95-.87-.72-8.77,2.56-.16,1.66,3.07.49-2.57,17.74h6.31c.11-.71.23-1.5.34-2.25,0,0,0,0,0,0,.52-2.39,1.09-7.14,1.96-9.15,1.12-2.6,2.89-5.38,3.94-5.51,1.45-.18,1.71,1.18,1.66,2.38-.04.31-.08.63-.13.97l-.11.73h0s0,0,0,0l-1.87,12.83h6.27c.25-1.64.58-3.66.72-4.83.03-.23.06-.45.09-.68.38-2.18.81-4.57,1.36-5.85,1.12-2.6,2.89-5.38,3.94-5.51,1.65-.2,1.75,1.59,1.63,2.86-.05.3-.1.61-.15.94l-1.23,6.74c-.1.66-.21,1.35-.33,2.07-.11.72-.15,1.41-.11,2.07.06.9.39,1.6.98,2.11.6.51,1.41.76,2.42.76,1.28,0,2.42-.28,3.43-.85.72-.4,1.38-.9,1.98-1.48-.07-.3-.12-.62-.14-.94-.05-.71.02-1.38.19-2Z" style="fill: #fff;"/>
      <path d="M58.5,56.88c-.6.05-.79-.75-.71-1.86,0-.03,0-.07,0-.1,0-.08.02-.19.04-.33,0,0,0,0,0,0,.17-1.32.5-3.62.51-3.65.24-1.68.46-3.23.47-3.23l1.36-8.86-.87-.72-5.72,1.89c-.13,1.14-.26,2.26-.37,3.37-.35,2.42-1.52,8.05-2.41,9.6-1.05,1.81-2.39,3.63-3.45,3.64-.38-.01-.73-.14-1.04-.4-.32-.27-.5-.73-.55-1.39-.02-.3,0-.61.03-.92.04-.31.08-.65.13-1.01.05-.36.11-.72.17-1.08l2.14-12.98-.83-.72-8.99,2.51-.15,1.71,3.14.53-1.63,10.29c-.1.75-.19,1.49-.27,2.22-.08.73-.11,1.43-.06,2.09.05.78.27,1.45.65,2.02.38.57.88,1,1.48,1.3.6.3,1.25.45,1.95.45,1.05,0,2.1-.25,3.18-.76,1.07-.51,2.14-1.24,3.22-2.2.39-.35.77-.73,1.15-1.14-.17,1.1-.16,3.29,2.25,3.85.19.05.39.08.6.11.02,0,.04.01.06.01.08,0,.17,0,.25,0,.08,0,.15.02.23.02.04,0,.08,0,.12,0,3.96,0,6.57-2.48,6.57-2.48l.68-4.03c-.88.85-2.37,2.16-3.3,2.24Z" style="fill: #fff;"/>
      <path d="M107.39,31.68c-.58-.6-1.42-.9-2.52-.9s-2.11.3-2.93.9c-.82.6-1.36,1.65-1.61,3.14-.08.54-.14,1.26-.17,2.16-.03.9-.02,2.03.02,3.39.04,1.36.13,3.03.25,5.01l.32,6.44c.18-.02.36-.03.55-.03.5,0,.98.09,1.44.21,1.21-3.16,2.2-6.44,2.95-8.47.76-2.04,1.34-3.65,1.74-4.85.4-1.2.66-2.14.78-2.83.12-.69.16-1.27.13-1.75-.06-1.02-.38-1.83-.96-2.42Z" style="fill: #fff;"/>
    </g>
  </g>
</svg>