<svg id="LinkedIn_fafafa_" data-name="LinkedIn" xmlns="http://www.w3.org/2000/svg" viewBox="0 0 48 48"><defs><style>.cls-1{fill:none;}.cls-2{fill:#fff;}</style></defs><title>New_LinkedIn (fafafa)</title><rect class="cls-1" width="48" height="48"/><path class="cls-2" d="M25.13,22.79v0l0,0Z"/><path class="cls-2" d="M36.84,9.05H11.16a2.12,2.12,0,0,0-2.11,2.11V36.84A2.12,2.12,0,0,0,11.16,39H36.84A2.12,2.12,0,0,0,39,36.84V11.16A2.12,2.12,0,0,0,36.84,9.05ZM18.1,34.44H13.58V20.82H18.1ZM15.84,19h0a2.36,2.36,0,1,1,.06-4.7,2.36,2.36,0,1,1,0,4.7ZM34.42,34.44H29.9V27.15c0-1.83-.66-3.08-2.3-3.08a2.47,2.47,0,0,0-2.32,1.66,3.05,3.05,0,0,0-.15,1.1v7.61H20.61s.06-12.34,0-13.62h4.52v1.93a4.49,4.49,0,0,1,4.08-2.25c3,0,5.21,1.95,5.21,6.13Z"/></svg>