<svg height="96" viewBox="0 0 96 96" width="96" xmlns="http://www.w3.org/2000/svg"><g stroke-linejoin="round" stroke-width="2.5"><g stroke-linecap="round"><path d="m4.449 19.965h64.976" fill="none" stroke="#ef6a00"/><path d="m52.439 71.863h-43.442c-2.512 0-4.548-2.036-4.548-4.548v-55.222c0-2.512 2.036-4.548 4.548-4.548h55.88c2.512 0 4.548 2.036 4.548 4.548v40.326" fill="none" stroke="#fff"/><path d="m16.93 3.589v8.052" fill="none" stroke="#fff"/><path d="m30.258 3.589v8.052" fill="none" stroke="#fff"/><path d="m56.914 3.589v8.052" fill="none" stroke="#fff"/><path d="m43.586 3.589v8.052" fill="none" stroke="#fff"/><circle cx="36.952" cy="32.76" fill="#fff" r="1.781" stroke="#fff"/><circle cx="26.116" cy="32.76" fill="#fff" r="1.781" stroke="#fff"/><circle cx="47.754" cy="32.76" fill="#fff" r="1.781" stroke="#fff"/><circle cx="58.572" cy="32.76" fill="#fff" r="1.781" stroke="#fff"/><circle cx="15.297" cy="45.897" fill="#fff" r="1.781" stroke="#fff"/><circle cx="26.116" cy="45.897" fill="#fff" r="1.781" stroke="#fff"/><circle cx="36.952" cy="45.897" fill="#fff" r="1.781" stroke="#fff"/><circle cx="47.771" cy="45.897" fill="#fff" r="1.781" stroke="#fff"/><circle cx="58.572" cy="45.897" fill="#fff" r="1.781" stroke="#fff"/><circle cx="15.297" cy="59.046" fill="#fff" r="1.781" stroke="#fff"/><circle cx="26.116" cy="59.046" fill="#fff" r="1.781" stroke="#fff"/><circle cx="36.952" cy="59.046" fill="#fff" r="1.781" stroke="#fff"/><circle cx="47.771" cy="59.046" fill="#fff" r="1.781" stroke="#fff"/></g><circle cx="72.709" cy="72.709" fill="none" r="20.291" stroke="#fff"/><path d="m72.709 58.116v2.149" fill="none" stroke="#ef6a00" stroke-linecap="round"/><path d="m72.709 85.154v2.149" fill="none" stroke="#ef6a00" stroke-linecap="round"/><path d="m87.303 72.709h-2.149" fill="none" stroke="#ef6a00" stroke-linecap="round"/><path d="m60.265 72.709h-2.149" fill="none" stroke="#ef6a00" stroke-linecap="round"/><path d="m65.2 67.694c.256.128 7.253 5.079 7.509 5.015s10.166-7.833 10.166-7.833" fill="none" stroke="#ef6a00" stroke-linecap="round"/></g></svg>