<svg height="96" viewBox="0 0 96 96" width="96" xmlns="http://www.w3.org/2000/svg"><g stroke-linejoin="round" stroke-width="2.5"><path d="m29.506 6.311v.772c0 1.41 1.153 2.563 2.563 2.563h15.691c1.41 0 2.563-1.153 2.563-2.563v-.772" fill="#fff" stroke="#fff"/><g fill="none"><rect height="83.379" rx="3.052" stroke="#fff" width="48.049" x="16.032" y="6.311"/><path d="m85.22 68.793c5.746-12.91 5.746-27.666 0-40.576" stroke="#ef6a00" stroke-linecap="round"/><path d="m78.043 61.524c1.658-4.844 2.295-9.902 2.124-14.977-.253-3.777-.869-7.526-2.124-11.149" stroke="#ef6a00" stroke-linecap="round"/><path d="m71.468 56.363c1.003-2.93 1.388-5.99 1.285-9.06-.153-2.284-.525-4.552-1.285-6.744" stroke="#ef6a00" stroke-linecap="round"/><path d="m31.538 53.532c5.26 10.202 13.79 16.273 19.054 13.559.588-.303 1.298-.756 2.001-1.239 1.752-1.205 2.076-3.663.707-5.291l-3.891-4.629c-1.028-1.223-2.862-1.362-4.062-.306l-1.651 1.452c-.724.637-1.842.536-2.423-.234-1.406-1.865-2.7-4.066-3.87-6.336s-2.212-4.6-2.916-6.828c-.29-.919.276-1.889 1.215-2.109l2.14-.503c1.556-.366 2.507-1.939 2.106-3.486l-1.514-5.855c-.532-2.059-2.723-3.221-4.72-2.493-.801.292-1.582.608-2.17.911-5.263 2.714-5.266 13.184-.006 23.386z" stroke="#ef6a00" stroke-linecap="round"/></g></g></svg>